<svg width="176" height="80" viewBox="0 0 176 80" fill="none" xmlns="http://www.w3.org/2000/svg">
    <g clip-path="url(#clip0_275_19)">
        <path
            d="M81.1411 9.98212C84.6436 9.98212 87.9709 11.675 89.9557 14.5937L133.503 76.8214C134.963 78.8646 137.181 79.9153 139.399 79.9153H49.3851C47.1668 79.9153 44.9486 78.8646 43.4892 76.8214L0.641988 15.6445C-1.05089 13.2511 0.700363 9.98212 3.56074 9.98212H81.1411Z"
            fill="url(#paint0_linear_275_19)" />
        <path
            d="M77.1133 2.86037C80.2655 2.97712 83.2426 4.66999 85.1106 7.35524L126.031 65.7302C127.374 67.6566 129.417 68.6489 131.402 68.7657L51.2532 65.6718C49.2684 65.6134 47.2253 64.5627 45.8827 62.6363L5.66233 5.31212C4.0862 3.03549 5.4872 0.116747 8.11407 0.233497L77.1133 2.86037Z"
            fill="#FFFEFA" stroke="#0E0E6E" stroke-width="0.75" stroke-miterlimit="10" />
        <path
            d="M83.5345 21.3069H161.115C164.034 21.3069 165.726 24.5759 164.034 26.9692L137.998 64.2124C135.955 67.0728 132.686 68.8241 129.184 68.8241H51.6034C48.6846 68.8241 46.9918 65.5551 48.6846 63.1617L74.7199 25.9185C76.7046 22.9997 80.032 21.3069 83.5345 21.3069Z"
            fill="#FFFEFA" stroke="#0E0E6E" stroke-width="0.75" stroke-miterlimit="10" />
        <path
            d="M171.681 29.3042C174.6 29.3042 176.292 32.5732 174.6 34.9666L145.354 76.8214C143.894 78.8646 141.676 79.9153 139.458 79.9153H49.3853C51.6035 79.9153 53.8217 78.8646 55.2811 76.8214L85.2859 33.9158C87.329 31.0555 90.598 29.3042 94.1005 29.3042H171.681Z"
            fill="url(#paint1_linear_275_19)" />
        <path
            d="M100.989 62.9282C99.0039 63.1033 97.1943 63.5703 95.7349 64.2124C94.2172 64.9129 92.7578 65.2048 91.3568 65.2048C90.3061 65.2048 89.4304 64.9129 88.73 64.3292C88.0295 63.7454 87.6792 63.1033 87.6792 62.2861C87.6792 61.5272 88.0878 60.7683 88.9051 60.0678C89.7223 59.3673 90.5979 59.0171 91.5903 59.0171H91.4736C90.9482 58.4333 90.7147 57.6744 90.7147 56.7988C90.7147 55.8064 91.1817 55.0476 92.0573 54.4054C92.8746 53.9384 93.6918 53.5298 94.5091 53.0628C95.3847 52.4791 95.7933 51.7786 95.7349 50.8446C96.3771 51.3699 96.7273 51.8369 96.7273 52.3039C96.7273 52.5374 96.6106 52.8293 96.4354 53.1212C97.0192 53.1212 97.5446 53.4131 98.0116 53.9968C98.4202 54.4638 98.7121 54.9308 98.8872 55.4562C98.3034 54.6973 97.4862 54.2887 96.4354 54.2887C95.6766 54.2887 95.0344 54.5806 94.4507 55.1059C93.9253 55.5729 93.6918 56.1567 93.6918 56.7404C93.6918 57.3242 93.9837 57.8496 94.5091 58.2582C95.0344 58.7252 95.6766 58.9003 96.4354 58.9003H101.105V61.2353H91.4736C91.0066 61.2353 90.7731 61.5272 90.7731 62.1109C90.7731 62.5779 91.0649 62.7531 91.6487 62.7531H100.989V62.9282ZM98.7121 67.5398C98.1283 68.2987 97.4862 69.1159 96.9024 69.8748C96.2603 70.7504 95.9684 71.6261 95.9684 72.4433C95.9684 72.9687 96.3771 73.2022 97.1359 73.2022C97.7197 73.2022 98.0116 72.9687 98.0116 72.5601C98.0116 72.1514 97.8364 71.8012 97.4278 71.5093C98.2451 71.6261 98.6537 72.0931 98.6537 72.7936C98.6537 73.1438 98.4786 73.4357 98.1283 73.6692C97.7781 73.9027 97.3694 74.0194 96.9024 74.0194C96.4354 74.0194 95.9684 73.8443 95.6182 73.5524C95.2679 73.2606 95.0928 72.9103 95.0928 72.5017C95.0928 72.2098 95.2096 71.7428 95.3847 71.2174C94.1004 71.7428 93.0497 72.0347 92.2324 72.0347C90.4812 72.0347 89.6056 71.1591 89.6056 69.3494C89.6056 68.8824 89.8391 68.4154 90.3061 68.0652C90.7731 67.6566 91.2984 67.4814 91.8822 67.4814C92.6411 67.4814 93.0497 67.8317 93.0497 68.5322C93.0497 69.3494 92.5243 69.8748 91.532 70.1083C92.0573 69.7581 92.2908 69.4078 92.2908 68.9992C92.2908 68.7073 92.0573 68.5322 91.6487 68.5322C90.8314 68.5322 90.4228 68.9992 90.4228 69.9332C90.4228 70.6921 91.0066 71.1007 92.2324 71.1007C93.3416 71.1007 94.3339 70.7504 95.2679 70.1083C96.0852 69.5246 96.6689 68.7657 96.9608 67.8317C97.0776 67.4814 97.3111 67.0728 97.7781 66.4307C98.3618 66.8393 98.7121 67.1896 98.7121 67.5398ZM96.6689 45.5908C95.2096 45.4741 93.9253 45.0655 92.8746 44.2482C91.7655 43.3726 91.1817 42.3802 91.1817 41.2711C91.1817 40.5706 91.532 39.5782 92.2908 38.294C92.9913 37.0097 93.3999 36.0173 93.3999 35.3168C93.3999 34.7331 93.1664 34.0326 92.7578 33.2737C94.2172 34.3828 94.9761 35.492 94.9761 36.5427C94.9761 37.2432 94.4507 37.827 93.4583 38.294C93.5751 38.294 93.7502 38.294 93.9253 38.294C94.5091 38.294 95.0344 38.4107 95.5014 38.7026C96.0268 38.9945 96.3187 39.3447 96.3187 39.7533C96.3187 40.3371 95.9101 40.9208 95.0928 41.5046C95.0928 41.3878 95.1512 41.1543 95.2679 40.8625C95.3847 40.629 95.4431 40.3955 95.4431 40.2203C95.4431 39.8701 95.2096 39.5782 94.6842 39.2863C94.2172 39.0528 93.7502 38.9361 93.2832 38.9361C92.5243 38.9361 92.1741 39.5198 92.1741 40.7457C92.1741 41.7381 92.5827 42.6721 93.3999 43.4893C94.2756 44.4233 95.3263 44.8903 96.5522 44.8903L96.6689 45.5908Z"
            fill="white" />
        <path
            d="M107.994 64.7962C106.943 64.4459 106.184 63.9789 105.775 63.4536C105.425 63.0449 105.133 62.3444 104.841 61.3521H100.405V59.0171H104.841V38.1772C104.841 37.4183 104.316 37.0097 103.324 37.0097C104.549 36.7762 105.542 36.3676 106.242 35.7838C106.826 35.3168 107.351 34.558 107.994 33.5656V64.7962ZM106.884 67.4231C106.884 68.0068 106.534 68.8241 105.775 69.9332C105.075 71.0423 104.666 71.8596 104.666 72.4433C104.666 72.8519 104.958 73.4357 105.6 74.2529C103.907 73.3773 103.09 72.5017 103.09 71.6261C103.09 70.8672 103.615 70.2834 104.608 69.9916C104.491 69.9916 104.316 69.9916 104.141 69.9916C103.615 69.9916 103.09 69.8748 102.623 69.6997C102.039 69.4662 101.806 69.1743 101.806 68.7657C101.806 68.1819 102.214 67.7149 103.032 67.2479L102.681 68.2987C102.681 68.5906 102.973 68.8824 103.499 69.1159C103.966 69.2911 104.374 69.4078 104.841 69.4078C105.6 69.4078 105.95 68.8824 105.95 67.8317C105.95 66.8977 105.542 66.0804 104.666 65.3799C103.791 64.6794 102.798 64.2708 101.631 64.2708L101.456 63.7454C105.016 64.3876 106.884 65.6134 106.884 67.4231Z"
            fill="white" />
        <path
            d="M116.517 61.3521H114.24C114.24 62.1693 113.948 62.8114 113.423 63.3952C113.014 63.8038 112.314 64.2708 111.321 64.7962V33.5656C111.496 34.7331 111.905 35.6087 112.547 36.1341C113.248 36.7178 114.298 37.0097 115.816 37.0097C115.349 37.0097 114.999 37.1265 114.765 37.3016L114.298 38.1772V59.0171H116.575V61.3521H116.517Z"
            fill="white" />
        <path
            d="M142.202 64.7962C141.209 64.5043 140.45 64.0373 140.042 63.4536C139.75 63.0449 139.458 62.3444 139.225 61.3521H114.707V59.0171H117.684V37.5935C117.684 36.8346 117.159 36.426 116.108 36.426C116.984 36.1925 117.859 35.7255 118.735 35.025C119.085 34.7331 119.727 34.0326 120.661 32.9818V54.9892H134.029V54.3471C134.029 53.4714 134.438 52.7126 135.197 52.0704C135.956 51.4867 136.948 51.1365 138.115 51.1365C139.283 51.1365 140.275 51.4283 141.034 52.0704C141.793 52.7126 142.202 53.4714 142.202 54.3471V64.7962ZM138.699 69.6997C138.699 70.5169 138.349 71.1591 137.59 71.6844C136.89 72.1514 136.014 72.3849 134.963 72.3849C134.146 72.3849 133.387 72.2682 132.687 71.9763C131.986 71.6844 131.344 71.3926 130.702 71.1007C129.126 70.5753 127.199 70.2834 124.806 70.2834C123.697 70.2834 122.763 70.4586 121.887 70.8672C120.895 71.3342 120.369 71.9763 120.369 72.7352C120.369 73.4357 120.778 73.7859 121.537 73.7859C121.887 73.7859 122.237 73.7276 122.529 73.5524C122.821 73.3773 122.996 73.1438 122.996 72.9103C122.996 72.5601 122.646 72.2098 121.887 71.8012C123.463 71.9763 124.222 72.5017 124.222 73.3773C124.222 74.1946 123.58 74.6032 122.237 74.6032C121.479 74.6032 120.778 74.4281 120.194 74.0778C119.552 73.6692 119.26 73.2022 119.26 72.5601C119.26 71.6261 119.902 70.9256 121.128 70.4002C122.121 69.9916 123.288 69.8164 124.631 69.8164C126.499 69.8164 128.542 70.1083 130.643 70.6921C130.468 70.2834 130.352 69.9332 130.352 69.6997C130.352 69.2327 130.643 68.8241 131.227 68.5322C131.753 68.2403 132.336 68.1236 132.978 68.1236C133.562 68.1236 134.088 68.2403 134.555 68.4154C135.138 68.6489 135.43 68.9408 135.43 69.3494C135.43 69.9332 134.846 70.2834 133.679 70.4586C134.321 70.1667 134.613 69.7581 134.613 69.3494C134.613 68.9408 134.204 68.7657 133.387 68.7657C132.044 68.7657 131.344 69.1743 131.344 70.0499C131.344 70.6921 131.811 71.1591 132.803 71.4509C133.504 71.6844 134.321 71.8012 135.255 71.8012C135.956 71.8012 136.539 71.5677 136.948 71.1591C137.298 70.7504 137.532 70.2834 137.532 69.6997C137.532 68.9992 137.24 68.2987 136.656 67.5982C136.014 66.8393 135.255 66.3723 134.438 66.2556C133.037 66.0804 130.994 65.7886 128.367 65.2632C127.841 65.0881 127.141 64.6211 126.382 63.7454C127.316 64.2708 128.6 64.6211 130.235 64.8546C132.336 65.1464 133.679 65.3799 134.263 65.4967C135.722 65.9053 136.948 66.6642 137.882 67.7149C138.407 68.3571 138.699 68.9992 138.699 69.6997ZM139.283 59.0171V54.4054C139.283 53.8217 138.874 53.5298 138.115 53.5298C137.415 53.5298 137.065 53.8217 137.065 54.4054V57.3242H120.72V59.0171H139.283ZM140.801 35.7838C140.801 36.8346 140.159 37.36 138.933 37.36C137.765 37.36 136.948 36.7762 136.539 35.5503C137.065 36.1341 137.59 36.426 138.232 36.426C138.582 36.426 138.874 36.3092 139.166 36.0757C139.458 35.8422 139.575 35.5503 139.575 35.3168C139.575 34.7331 139.049 34.4412 137.999 34.4412C136.831 34.4412 135.839 34.8498 135.197 35.6671C134.613 36.3676 134.321 37.2432 134.321 38.2356C134.321 38.8193 134.438 39.5198 134.671 40.3955C134.905 41.3295 135.197 42.03 135.547 42.4386C135.956 42.964 136.423 43.4893 136.831 44.0147C137.24 44.5985 137.415 45.1822 137.415 45.8243C137.415 46.6416 137.006 47.3421 136.247 47.9258C135.489 48.5096 134.496 48.7431 133.445 48.7431C132.511 48.7431 131.519 48.5096 130.41 48.0426C128.834 47.3421 127.725 46.4081 127.083 45.299C126.732 44.7152 126.44 43.6645 126.09 42.2051C125.798 40.9208 125.39 40.0452 124.864 39.4615L126.149 40.162C126.324 40.3955 126.499 40.5706 126.616 40.6873L127.433 43.1391C127.55 43.6645 127.783 44.4233 128.133 45.4741C128.484 46.1746 129.184 46.7583 130.235 47.2253C131.227 47.6923 132.278 47.8675 133.27 47.8675C135.43 47.8675 136.481 47.167 136.481 45.7076C136.481 44.9487 136.247 44.3066 135.722 43.8396C135.138 43.3142 134.438 43.0223 133.504 43.0223C132.453 43.0223 131.928 43.5477 131.928 44.5985C131.928 45.2406 132.22 45.5908 132.862 45.5908C133.445 45.5908 134.029 45.3573 134.555 44.832C134.321 45.7076 133.737 46.1746 132.803 46.1746C132.278 46.1746 131.811 45.9411 131.461 45.5325C131.169 45.1238 130.994 44.7152 130.994 44.3066C130.994 43.7228 131.227 43.2558 131.753 42.8472C132.278 42.4386 132.862 42.2635 133.621 42.2635C133.737 42.2635 134.204 42.3218 134.905 42.497C134.029 41.096 133.562 39.5198 133.562 37.7686C133.562 36.7178 133.912 35.7838 134.613 34.9666C135.372 34.091 136.423 33.624 137.765 33.624C138.641 33.624 139.341 33.8575 139.925 34.3245C140.509 34.558 140.801 35.1417 140.801 35.7838Z"
            fill="white" />
    </g>
    <defs>
        <linearGradient id="paint0_linear_275_19" x1="-0.000136403" y1="44.9342" x2="139.456"
            y2="44.9342" gradientUnits="userSpaceOnUse">
            <stop stop-color="#1E2E5B" />
            <stop offset="0.2486" stop-color="#406DF6" />
            <stop offset="0.5224" stop-color="#406DF6" />
        </linearGradient>
        <linearGradient id="paint1_linear_275_19" x1="49.384" y1="54.6084" x2="175.292" y2="54.6084"
            gradientUnits="userSpaceOnUse">
            <stop offset="0.0931097" stop-color="#DD5F16" />
            <stop offset="0.1178" stop-color="#D65A21" />
            <stop offset="0.2434" stop-color="#B44255" />
            <stop offset="0.371" stop-color="#962E82" />
            <stop offset="0.4981" stop-color="#7E1DA7" />
            <stop offset="0.6248" stop-color="#6C11C3" />
            <stop offset="0.7509" stop-color="#5F07D8" />
            <stop offset="0.8762" stop-color="#5702E4" />
            <stop offset="1" stop-color="#5400E8" />
        </linearGradient>
        <clipPath id="clip0_275_19">
            <rect width="175.3" height="79.8569" fill="white" />
        </clipPath>
    </defs>
</svg>
